<?xml version="1.0" encoding="UTF-8" standalone="no"?>
<!-- Created with Inkscape (http://www.inkscape.org/) -->

<svg
   xmlns:dc="http://purl.org/dc/elements/1.1/"
   xmlns:cc="http://creativecommons.org/ns#"
   xmlns:rdf="http://www.w3.org/1999/02/22-rdf-syntax-ns#"
   xmlns:svg="http://www.w3.org/2000/svg"
   xmlns="http://www.w3.org/2000/svg"
   xmlns:xlink="http://www.w3.org/1999/xlink"
   xmlns:sodipodi="http://sodipodi.sourceforge.net/DTD/sodipodi-0.dtd"
   xmlns:inkscape="http://www.inkscape.org/namespaces/inkscape"
   id="svg2"
   height="48"
   width="48"
   version="1.0"
   inkscape:version="0.48.3.1 r9886"
   sodipodi:docname="class.svg">
  <sodipodi:namedview
     pagecolor="#ffffff"
     bordercolor="#666666"
     borderopacity="1"
     objecttolerance="10"
     gridtolerance="10"
     guidetolerance="10"
     inkscape:pageopacity="0"
     inkscape:pageshadow="2"
     inkscape:window-width="1280"
     inkscape:window-height="747"
     id="namedview59"
     showgrid="false"
     inkscape:zoom="6.9532167"
     inkscape:cx="33.93626"
     inkscape:cy="24"
     inkscape:window-x="0"
     inkscape:window-y="27"
     inkscape:window-maximized="1"
     inkscape:current-layer="layer1" />
  <defs
     id="defs4">
    <linearGradient
       id="linearGradient4045">
      <stop
         offset="0"
         stop-color="#888a85"
         id="stop4047"
         style="stop-color:#a9aa1b;stop-opacity:1;" />
      <stop
         offset="1"
         stop-color="#d3d7cf"
         id="stop4049"
         style="stop-color:#f4f07d;stop-opacity:1;" />
    </linearGradient>
    <linearGradient
       id="linearGradient3198">
      <stop
         id="stop3200"
         offset="0" />
      <stop
         id="stop3202"
         stop-opacity="0"
         offset="1" />
    </linearGradient>
    <linearGradient
       id="linearGradient2892">
      <stop
         id="stop2894"
         stop-color="#fff"
         offset="0" />
      <stop
         id="stop2896"
         stop-color="#fff"
         stop-opacity="0"
         offset="1" />
    </linearGradient>
    <linearGradient
       id="linearGradient2903">
      <stop
         id="stop2905"
         stop-color="#888a85"
         offset="0" />
      <stop
         id="stop2907"
         stop-color="#d3d7cf"
         offset="1" />
    </linearGradient>
    <linearGradient
       id="linearGradient2895">
      <stop
         id="stop2897"
         stop-color="#d3d7cf"
         offset="0" />
      <stop
         id="stop2899"
         stop-color="#888a85"
         offset="1" />
    </linearGradient>
    <linearGradient
       id="linearGradient3112"
       y2="11.424"
       xlink:href="#linearGradient2903"
       gradientUnits="userSpaceOnUse"
       x2="12.641"
       gradientTransform="matrix(0.96593,-0.25882,0.25882,0.96593,7.2816,0.75564)"
       y1="35.311"
       x1="22.965" />
    <linearGradient
       id="linearGradient3114"
       y2="52.505"
       xlink:href="#linearGradient2892"
       gradientUnits="userSpaceOnUse"
       x2="17.028"
       gradientTransform="matrix(0.96593,-0.25882,0.25882,0.96593,7.2816,0.75564)"
       y1="7.8708"
       x1="17.413" />
    <radialGradient
       id="radialGradient3116"
       xlink:href="#linearGradient3198"
       gradientUnits="userSpaceOnUse"
       cy="12"
       cx="31"
       gradientTransform="matrix(0.97747,-0.26191,0.26191,0.97747,-2.4444,8.3897)"
       r="11.125" />
    <linearGradient
       id="linearGradient3118"
       y2="3.4233"
       xlink:href="#linearGradient2895"
       gradientUnits="userSpaceOnUse"
       x2="10.211"
       gradientTransform="matrix(0.90911,-0.24359,0.24359,0.90911,8.6768,1.4171)"
       y1="21.877"
       x1="21.788" />
    <linearGradient
       id="linearGradient3120"
       y2="30.758"
       xlink:href="#linearGradient2892"
       gradientUnits="userSpaceOnUse"
       x2="32.567"
       gradientTransform="matrix(0.96593,-0.25882,0.25882,0.96593,-4.1168,6.7297)"
       y1="13.971"
       x1="16.488" />
    <linearGradient
       id="linearGradient3122"
       y2="5.1875"
       xlink:href="#linearGradient2892"
       gradientUnits="userSpaceOnUse"
       x2="17.732"
       gradientTransform="matrix(0.96593,-0.25882,0.25882,0.96593,-4.1168,6.7296)"
       y1="22.795"
       x1="28.357" />
    <linearGradient
       id="linearGradient3171"
       y2="44.062"
       xlink:href="#linearGradient2892"
       gradientUnits="userSpaceOnUse"
       x2="30.438"
       y1="31.062"
       x1="14.375" />
    <linearGradient
       id="linearGradient3177"
       y2="30.901"
       gradientUnits="userSpaceOnUse"
       x2="17.449"
       y1="36.825"
       x1="20.807">
      <stop
         id="stop3073"
         stop-color="#eeeeec"
         offset="0" />
      <stop
         id="stop3075"
         stop-color="#eeeeec"
         stop-opacity="0"
         offset="1" />
    </linearGradient>
    <linearGradient
       id="linearGradient3179"
       y2="31.111"
       gradientUnits="userSpaceOnUse"
       x2="23.032"
       y1="36.68"
       x1="17.66">
      <stop
         id="stop3067"
         stop-color="#eeeeec"
         offset="0" />
      <stop
         id="stop3069"
         stop-color="#eeeeec"
         stop-opacity="0"
         offset="1" />
    </linearGradient>
    <linearGradient
       id="linearGradient3184"
       y2="37.128"
       xlink:href="#linearGradient2903"
       gradientUnits="userSpaceOnUse"
       x2="22.053"
       gradientTransform="translate(-3,1)"
       y1="30.676"
       x1="16.794" />
    <radialGradient
       id="radialGradient3187"
       gradientUnits="userSpaceOnUse"
       cy="34.5"
       cx="42.5"
       gradientTransform="matrix(1 0 0 .99640 -26 1.1241)"
       r="8.6875">
      <stop
         id="stop3027"
         offset="0" />
      <stop
         id="stop3029"
         stop-opacity="0"
         offset="1" />
    </radialGradient>
    <linearGradient
       id="linearGradient3191"
       y2="42.564"
       xlink:href="#linearGradient2895"
       gradientUnits="userSpaceOnUse"
       x2="26.737"
       gradientTransform="translate(-3,1)"
       y1="29.88"
       x1="14.496" />
    <radialGradient
       id="radialGradient3204"
       xlink:href="#linearGradient3198"
       gradientUnits="userSpaceOnUse"
       cy="34.656"
       cx="15.312"
       gradientTransform="matrix(1 0 0 1.0033 0 -0.114)"
       r="9.5" />
    <linearGradient
       inkscape:collect="always"
       xlink:href="#linearGradient2903"
       id="linearGradient3090"
       gradientUnits="userSpaceOnUse"
       gradientTransform="matrix(0.96593,-0.25882,0.25882,0.96593,7.2816,0.75564)"
       x1="22.965"
       y1="35.311"
       x2="12.641"
       y2="11.424" />
    <linearGradient
       inkscape:collect="always"
       xlink:href="#linearGradient2892"
       id="linearGradient3092"
       gradientUnits="userSpaceOnUse"
       gradientTransform="matrix(0.96593,-0.25882,0.25882,0.96593,7.2816,0.75564)"
       x1="17.413"
       y1="7.8708"
       x2="17.028"
       y2="52.505" />
    <radialGradient
       inkscape:collect="always"
       xlink:href="#linearGradient3198"
       id="radialGradient3094"
       gradientUnits="userSpaceOnUse"
       gradientTransform="matrix(0.97747,-0.26191,0.26191,0.97747,-2.4444,8.3897)"
       cx="31"
       cy="12"
       r="11.125" />
    <linearGradient
       inkscape:collect="always"
       xlink:href="#linearGradient2895"
       id="linearGradient3096"
       gradientUnits="userSpaceOnUse"
       gradientTransform="matrix(0.90911,-0.24359,0.24359,0.90911,8.6768,1.4171)"
       x1="21.788"
       y1="21.877"
       x2="10.211"
       y2="3.4233" />
    <linearGradient
       inkscape:collect="always"
       xlink:href="#linearGradient2892"
       id="linearGradient3098"
       gradientUnits="userSpaceOnUse"
       gradientTransform="matrix(0.96593,-0.25882,0.25882,0.96593,-4.1168,6.7297)"
       x1="16.488"
       y1="13.971"
       x2="32.567"
       y2="30.758" />
    <linearGradient
       inkscape:collect="always"
       xlink:href="#linearGradient2892"
       id="linearGradient3100"
       gradientUnits="userSpaceOnUse"
       gradientTransform="matrix(0.96593,-0.25882,0.25882,0.96593,-4.1168,6.7296)"
       x1="28.357"
       y1="22.795"
       x2="17.732"
       y2="5.1875" />
    <linearGradient
       inkscape:collect="always"
       xlink:href="#linearGradient2895"
       id="linearGradient3117"
       gradientUnits="userSpaceOnUse"
       gradientTransform="translate(-3,1)"
       x1="14.496"
       y1="29.88"
       x2="26.737"
       y2="42.564" />
    <linearGradient
       inkscape:collect="always"
       xlink:href="#linearGradient2892"
       id="linearGradient3119"
       gradientUnits="userSpaceOnUse"
       x1="14.375"
       y1="31.062"
       x2="30.438"
       y2="44.062" />
    <radialGradient
       inkscape:collect="always"
       xlink:href="#radialGradient3187"
       id="radialGradient3121"
       gradientUnits="userSpaceOnUse"
       gradientTransform="matrix(1,0,0,0.9964,-26,1.1241)"
       cx="42.5"
       cy="34.5"
       r="8.6875" />
    <linearGradient
       inkscape:collect="always"
       xlink:href="#linearGradient2903"
       id="linearGradient3123"
       gradientUnits="userSpaceOnUse"
       gradientTransform="translate(-3,1)"
       x1="16.794"
       y1="30.676"
       x2="22.053"
       y2="37.128" />
    <linearGradient
       inkscape:collect="always"
       xlink:href="#linearGradient3177"
       id="linearGradient3125"
       gradientUnits="userSpaceOnUse"
       x1="20.807"
       y1="36.825"
       x2="17.449"
       y2="30.901" />
    <linearGradient
       inkscape:collect="always"
       xlink:href="#linearGradient3179"
       id="linearGradient3127"
       gradientUnits="userSpaceOnUse"
       x1="17.66"
       y1="36.68"
       x2="23.032"
       y2="31.111" />
    <radialGradient
       inkscape:collect="always"
       xlink:href="#linearGradient3198"
       id="radialGradient3202"
       gradientUnits="userSpaceOnUse"
       gradientTransform="matrix(1,0,0,1.0033,0,-0.114)"
       cx="15.312"
       cy="34.656"
       r="9.5" />
    <radialGradient
       inkscape:collect="always"
       xlink:href="#linearGradient3198"
       id="radialGradient3205"
       gradientUnits="userSpaceOnUse"
       gradientTransform="matrix(1,0,0,1.0033,0,-0.114)"
       cx="15.312"
       cy="34.656"
       r="9.5" />
    <linearGradient
       inkscape:collect="always"
       xlink:href="#linearGradient2903"
       id="linearGradient3207"
       gradientUnits="userSpaceOnUse"
       gradientTransform="matrix(0.96593,-0.25882,0.25882,0.96593,7.2816,0.75564)"
       x1="22.965"
       y1="35.311"
       x2="12.641"
       y2="11.424" />
    <linearGradient
       inkscape:collect="always"
       xlink:href="#linearGradient2892"
       id="linearGradient3209"
       gradientUnits="userSpaceOnUse"
       gradientTransform="matrix(0.96593,-0.25882,0.25882,0.96593,7.2816,0.75564)"
       x1="17.413"
       y1="7.8708"
       x2="17.028"
       y2="52.505" />
    <radialGradient
       inkscape:collect="always"
       xlink:href="#linearGradient3198"
       id="radialGradient3211"
       gradientUnits="userSpaceOnUse"
       gradientTransform="matrix(0.97747,-0.26191,0.26191,0.97747,-2.4444,8.3897)"
       cx="31"
       cy="12"
       r="11.125" />
    <linearGradient
       inkscape:collect="always"
       xlink:href="#linearGradient2895"
       id="linearGradient3213"
       gradientUnits="userSpaceOnUse"
       gradientTransform="matrix(0.90911,-0.24359,0.24359,0.90911,8.6768,1.4171)"
       x1="21.788"
       y1="21.877"
       x2="10.211"
       y2="3.4233" />
    <linearGradient
       inkscape:collect="always"
       xlink:href="#linearGradient2892"
       id="linearGradient3215"
       gradientUnits="userSpaceOnUse"
       gradientTransform="matrix(0.85228807,-0.22837082,0.22837082,0.85228807,7.1871674,4.8147927)"
       x1="16.488"
       y1="13.971"
       x2="32.567"
       y2="30.758" />
    <linearGradient
       inkscape:collect="always"
       xlink:href="#linearGradient2892"
       id="linearGradient3217"
       gradientUnits="userSpaceOnUse"
       gradientTransform="matrix(0.96593,-0.25882,0.25882,0.96593,-4.1168,6.7296)"
       x1="28.357"
       y1="22.795"
       x2="17.732"
       y2="5.1875" />
    <linearGradient
       inkscape:collect="always"
       xlink:href="#linearGradient2895"
       id="linearGradient3219"
       gradientUnits="userSpaceOnUse"
       gradientTransform="translate(-3,1)"
       x1="14.496"
       y1="29.88"
       x2="26.737"
       y2="42.564" />
    <linearGradient
       inkscape:collect="always"
       xlink:href="#linearGradient2892"
       id="linearGradient3221"
       gradientUnits="userSpaceOnUse"
       x1="14.375"
       y1="31.062"
       x2="30.438"
       y2="44.062" />
    <radialGradient
       inkscape:collect="always"
       xlink:href="#radialGradient3187"
       id="radialGradient3223"
       gradientUnits="userSpaceOnUse"
       gradientTransform="matrix(1,0,0,0.9964,-26,1.1241)"
       cx="42.5"
       cy="34.5"
       r="8.6875" />
    <linearGradient
       inkscape:collect="always"
       xlink:href="#linearGradient2903"
       id="linearGradient3225"
       gradientUnits="userSpaceOnUse"
       gradientTransform="translate(-3,1)"
       x1="16.794"
       y1="30.676"
       x2="22.053"
       y2="37.128" />
    <linearGradient
       inkscape:collect="always"
       xlink:href="#linearGradient3177"
       id="linearGradient3227"
       gradientUnits="userSpaceOnUse"
       x1="20.807"
       y1="36.825"
       x2="17.449"
       y2="30.901" />
    <linearGradient
       inkscape:collect="always"
       xlink:href="#linearGradient3179"
       id="linearGradient3229"
       gradientUnits="userSpaceOnUse"
       x1="17.66"
       y1="36.68"
       x2="23.032"
       y2="31.111" />
    <linearGradient
       inkscape:collect="always"
       xlink:href="#linearGradient2895"
       id="linearGradient3231"
       gradientUnits="userSpaceOnUse"
       gradientTransform="translate(-3,1)"
       x1="14.496"
       y1="29.88"
       x2="26.737"
       y2="42.564" />
    <linearGradient
       inkscape:collect="always"
       xlink:href="#linearGradient2892"
       id="linearGradient3233"
       gradientUnits="userSpaceOnUse"
       x1="14.375"
       y1="31.062"
       x2="30.438"
       y2="44.062" />
    <radialGradient
       inkscape:collect="always"
       xlink:href="#radialGradient3187"
       id="radialGradient3235"
       gradientUnits="userSpaceOnUse"
       gradientTransform="matrix(1,0,0,0.9964,-26,1.1241)"
       cx="42.5"
       cy="34.5"
       r="8.6875" />
    <linearGradient
       inkscape:collect="always"
       xlink:href="#linearGradient2903"
       id="linearGradient3237"
       gradientUnits="userSpaceOnUse"
       gradientTransform="translate(-3,1)"
       x1="16.794"
       y1="30.676"
       x2="22.053"
       y2="37.128" />
    <linearGradient
       inkscape:collect="always"
       xlink:href="#linearGradient3177"
       id="linearGradient3239"
       gradientUnits="userSpaceOnUse"
       x1="20.807"
       y1="36.825"
       x2="17.449"
       y2="30.901" />
    <linearGradient
       inkscape:collect="always"
       xlink:href="#linearGradient3179"
       id="linearGradient3241"
       gradientUnits="userSpaceOnUse"
       x1="17.66"
       y1="36.68"
       x2="23.032"
       y2="31.111" />
    <radialGradient
       inkscape:collect="always"
       xlink:href="#linearGradient3198"
       id="radialGradient4011"
       gradientUnits="userSpaceOnUse"
       gradientTransform="matrix(1,0,0,1.0033,0,-0.114)"
       cx="15.312"
       cy="34.656"
       r="9.5" />
    <radialGradient
       inkscape:collect="always"
       xlink:href="#linearGradient3198"
       id="radialGradient4031"
       gradientUnits="userSpaceOnUse"
       gradientTransform="matrix(1,0,0,1.0033,0,-0.114)"
       cx="15.312"
       cy="34.656"
       r="9.5" />
    <linearGradient
       inkscape:collect="always"
       xlink:href="#linearGradient2903"
       id="linearGradient4033"
       gradientUnits="userSpaceOnUse"
       gradientTransform="matrix(0.96593,-0.25882,0.25882,0.96593,7.2816,0.75564)"
       x1="22.965"
       y1="35.311"
       x2="12.641"
       y2="11.424" />
    <linearGradient
       inkscape:collect="always"
       xlink:href="#linearGradient2892"
       id="linearGradient4035"
       gradientUnits="userSpaceOnUse"
       gradientTransform="matrix(0.96593,-0.25882,0.25882,0.96593,7.2816,0.75564)"
       x1="17.413"
       y1="7.8708"
       x2="17.028"
       y2="52.505" />
    <radialGradient
       inkscape:collect="always"
       xlink:href="#linearGradient3198"
       id="radialGradient4037"
       gradientUnits="userSpaceOnUse"
       gradientTransform="matrix(0.97747,-0.26191,0.26191,0.97747,-2.4444,8.3897)"
       cx="31"
       cy="12"
       r="11.125" />
    <linearGradient
       inkscape:collect="always"
       xlink:href="#linearGradient2895"
       id="linearGradient4039"
       gradientUnits="userSpaceOnUse"
       gradientTransform="matrix(0.90911,-0.24359,0.24359,0.90911,8.6768,1.4171)"
       x1="21.788"
       y1="21.877"
       x2="10.211"
       y2="3.4233" />
    <linearGradient
       inkscape:collect="always"
       xlink:href="#linearGradient2892"
       id="linearGradient4041"
       gradientUnits="userSpaceOnUse"
       gradientTransform="matrix(0.96593,-0.25882,0.25882,0.96593,-4.1168,6.7297)"
       x1="16.488"
       y1="13.971"
       x2="32.567"
       y2="30.758" />
    <linearGradient
       inkscape:collect="always"
       xlink:href="#linearGradient2892"
       id="linearGradient4043"
       gradientUnits="userSpaceOnUse"
       gradientTransform="matrix(0.96593,-0.25882,0.25882,0.96593,-4.1168,6.7296)"
       x1="28.357"
       y1="22.795"
       x2="17.732"
       y2="5.1875" />
  </defs>
  <metadata
     id="metadata7">
    <rdf:RDF>
      <cc:Work
         rdf:about="">
        <dc:format>image/svg+xml</dc:format>
        <dc:type
           rdf:resource="http://purl.org/dc/dcmitype/StillImage" />
        <dc:creator>
          <cc:Agent>
            <dc:title>Lapo Calamandrei</dc:title>
          </cc:Agent>
        </dc:creator>
        <dc:title>System Run</dc:title>
        <cc:license
           rdf:resource="http://creativecommons.org/licenses/GPL/2.0/" />
        <dc:subject>
          <rdf:Bag>
            <rdf:li>run</rdf:li>
            <rdf:li>launch</rdf:li>
            <rdf:li>exec</rdf:li>
          </rdf:Bag>
        </dc:subject>
      </cc:Work>
      <cc:License
         rdf:about="http://creativecommons.org/licenses/GPL/2.0/">
        <cc:permits
           rdf:resource="http://web.resource.org/cc/Reproduction" />
        <cc:permits
           rdf:resource="http://web.resource.org/cc/Distribution" />
        <cc:requires
           rdf:resource="http://web.resource.org/cc/Notice" />
        <cc:permits
           rdf:resource="http://web.resource.org/cc/DerivativeWorks" />
        <cc:requires
           rdf:resource="http://web.resource.org/cc/ShareAlike" />
        <cc:requires
           rdf:resource="http://web.resource.org/cc/SourceCode" />
      </cc:License>
    </rdf:RDF>
  </metadata>
  <g
     id="layer1">
    <g
       id="g3129"
       inkscape:export-filename="/home/nick/projects/cleandoclet/src/main/resources/uk/co/nickthecoder/cleandoclet/images/class.png"
       inkscape:export-xdpi="109.19"
       inkscape:export-ydpi="109.19"
       transform="translate(7.1909164,-7.1909164)">
      <path
         transform="matrix(1.3882,0,0,0.49836,-4.7562,25.479)"
         d="m 24.812,34.656 a 9.5,9.5312 0 1 1 -19,0 9.5,9.5312 0 1 1 19,0 z"
         id="path3110"
         style="opacity:0.49020003;fill:url(#radialGradient4011)"
         inkscape:connector-curvature="0" />
      <g
         transform="matrix(0.96593,0.25882,-0.25882,0.96593,-9.9455524,13.131505)"
         id="g2904">
        <path
           d="m 31,0.5 c -0.562,0 -1.116,0.047 -1.656,0.125 l -0.219,3.0938 c -0.96,0.2157 -1.85,0.5835 -2.656,1.0937 L 24.125,2.7812 C 23,3.5 22.5,4 21.781,5.125 l 2.031,2.3438 c -0.51,0.8067 -0.878,1.6966 -1.093,2.6562 l -3.094,0.219 C 19.547,10.884 19.5,11.438 19.5,12 c 0,0.562 0.047,1.116 0.125,1.656 l 3.094,0.219 c 0.215,0.96 0.583,1.85 1.093,2.656 l -2.031,2.344 C 22.5,20 23,20.5 24.125,21.219 l 2.344,-2.031 c 0.806,0.51 1.696,0.878 2.656,1.093 l 0.219,3.094 c 0.54,0.078 1.094,0.125 1.656,0.125 0.562,0 1.116,-0.047 1.656,-0.125 l 0.219,-3.094 c 0.96,-0.215 1.85,-0.583 2.656,-1.093 l 2.344,2.031 C 39,20.5 39.5,20 40.219,18.875 l -2.031,-2.344 c 0.51,-0.806 0.878,-1.696 1.093,-2.656 l 3.094,-0.219 C 42.453,13.116 42.5,12.562 42.5,12 c 0,-0.562 -0.047,-1.116 -0.125,-1.656 L 39.281,10.125 C 39.066,9.1654 38.698,8.2755 38.188,7.4688 L 40.219,5.125 C 39.569,4.0173 39,3.5 37.875,2.7812 L 35.531,4.8125 C 34.725,4.3023 33.835,3.9345 32.875,3.7188 L 32.656,0.625 C 32.116,0.547 31.562,0.5 31,0.5 z m 0,9 c 1.38,0 2.5,1.12 2.5,2.5 0,1.38 -1.12,2.5 -2.5,2.5 -1.38,0 -2.5,-1.12 -2.5,-2.5 0,-1.38 1.12,-2.5 2.5,-2.5 z"
           id="path2779"
           style="fill:url(#linearGradient3112);stroke:#2e3436;stroke-width:1.00539994;stroke-linecap:square"
           inkscape:connector-curvature="0" />
        <path
           d="m 31,1.4375 c -0.26,0 -0.522,0.042 -0.781,0.0625 L 30,4.5625 c -1.317,0.1747 -2.522,0.702 -3.531,1.4688 L 24.156,4.0625 C 23.765,4.4001 23.4,4.7652 23.063,5.1563 l 1.968,2.3125 C 24.265,8.4783 23.737,9.683 23.563,11 L 20.5,11.219 c -0.021,0.259 -0.062,0.521 -0.062,0.781 0,0.26 0.041,0.522 0.062,0.781 L 23.563,13 c 0.174,1.317 0.702,2.522 1.468,3.531 l -1.968,2.313 c 0.337,0.391 0.702,0.756 1.093,1.094 l 2.313,-1.969 c 1.009,0.766 2.214,1.294 3.531,1.469 l 0.219,3.062 c 0.259,0.021 0.521,0.063 0.781,0.063 0.26,0 0.522,-0.042 0.781,-0.063 L 32,19.438 c 1.317,-0.175 2.522,-0.703 3.531,-1.469 l 2.313,1.969 C 38.235,19.6 38.6,19.235 38.938,18.844 L 36.969,16.531 C 37.735,15.522 38.263,14.317 38.438,13 L 41.5,12.781 c 0.021,-0.259 0.063,-0.521 0.063,-0.781 0,-0.26 -0.042,-0.522 -0.063,-0.781 L 38.438,11 C 38.263,9.683 37.735,8.4783 36.969,7.4688 L 38.938,5.1563 C 38.6,4.7652 38.235,4.4001 37.844,4.0625 L 35.531,6.0313 C 34.522,5.2645 33.317,4.7372 32,4.5625 L 31.781,1.5 C 31.522,1.4795 31.26,1.4375 31,1.4375 z"
           id="path2819"
           style="fill:none;stroke:url(#linearGradient3114);stroke-width:1.13329995;stroke-linecap:square"
           inkscape:connector-curvature="0" />
        <path
           d="m 31,0.875 c -0.321,0 -0.584,0.04438 -0.812,0.0625 l -0.5,0.03125 -0.032,0.50005 -0.187,2.6562 c -1.06,0.2091 -2.042,0.6405 -2.907,1.2188 l -2.406,-2.0313 -1.844,1.8437 2.032,2.4063 c -0.578,0.8646 -1.01,1.8462 -1.219,2.9065 l -2.656,0.187 -0.5,0.032 -0.031,0.5 c -0.019,0.228 -0.063,0.491 -0.063,0.812 0,0.321 0.044,0.584 0.063,0.812 l 0.031,0.5 0.5,0.032 2.656,0.187 c 0.209,1.06 0.641,2.042 1.219,2.907 l -1.719,2.031 -0.313,0.375 0.313,0.375 c 0.356,0.412 0.744,0.8 1.156,1.156 l 0.375,0.313 0.375,-0.313 2.031,-1.719 c 0.865,0.578 1.847,1.01 2.907,1.219 l 0.187,2.656 0.032,0.5 0.5,0.031 c 0.228,0.019 0.491,0.063 0.812,0.063 0.321,0 0.584,-0.044 0.812,-0.063 l 0.5,-0.031 0.032,-0.5 0.187,-2.656 c 1.06,-0.209 2.042,-0.641 2.907,-1.219 l 2.031,1.719 0.375,0.313 0.375,-0.313 c 0.412,-0.356 0.8,-0.744 1.156,-1.156 l 0.313,-0.375 -0.313,-0.375 -1.719,-2.031 c 0.578,-0.865 1.01,-1.847 1.219,-2.907 l 2.656,-0.187 0.5,-0.032 0.031,-0.5 c 0.019,-0.228 0.063,-0.491 0.063,-0.812 0,-0.321 -0.044,-0.584 -0.063,-0.812 l -0.031,-0.5 -0.5,-0.032 -2.656,-0.187 C 38.666,9.4087 38.234,8.4271 37.656,7.5625 l 1.719,-2.0313 0.313,-0.375 -0.313,-0.375 C 39.019,4.3693 38.631,3.9807 38.219,3.625 L 37.844,3.3125 37.469,3.625 35.438,5.3438 C 34.573,4.7655 33.591,4.3341 32.531,4.125 L 32.344,1.4688 32.312,0.96875 31.812,0.9375 C 31.584,0.91938 31.321,0.875 31,0.875 z M 31,8.5 c 1.932,0 3.5,1.568 3.5,3.5 0,1.932 -1.568,3.5 -3.5,3.5 -1.932,0 -3.5,-1.568 -3.5,-3.5 0,-1.932 1.568,-3.5 3.5,-3.5 z"
           id="path2875"
           style="opacity:0.8;fill:url(#radialGradient3116)"
           inkscape:connector-curvature="0" />
        <path
           d="m 31,4 c -4.416,0 -8,3.584 -8,8 0,4.416 3.584,8 8,8 4.416,0 8,-3.584 8,-8 0,-4.416 -3.584,-8 -8,-8 z m 0,5 c 1.656,0 3,1.344 3,3 0,1.656 -1.344,3 -3,3 -1.656,0 -3,-1.344 -3,-3 0,-1.656 1.344,-3 3,-3 z"
           id="path2867"
           style="fill:url(#linearGradient3118)"
           inkscape:connector-curvature="0" />
        <path
           transform="matrix(0.88235,-1.0264e-6,1.0264e-6,0.88235,10.265,-4.7647)"
           d="m 32,19 a 8.5,8.5 0 1 1 -17,0 8.5,8.5 0 1 1 17,0 z"
           id="path2849"
           style="fill:none;stroke:url(#linearGradient3120);stroke-width:1.13329995;stroke-linecap:square"
           inkscape:connector-curvature="0" />
        <path
           transform="matrix(0.41176,-4.79e-7,4.79e-7,0.41176,21.324,4.1765)"
           d="m 32,19 a 8.5,8.5 0 1 1 -17,0 8.5,8.5 0 1 1 17,0 z"
           id="path2835"
           style="fill:none;stroke:url(#linearGradient3122);stroke-width:2.42860007;stroke-linecap:square"
           inkscape:connector-curvature="0" />
      </g>
    </g>
    <g
       transform="translate(47.617323,-7.0470981)"
       inkscape:export-ydpi="109.19"
       inkscape:export-xdpi="109.19"
       inkscape:export-filename="/home/nick/projects/cleandoclet/src/main/resources/uk/co/nickthecoder/cleandoclet/images/interface.png"
       id="g4013">
      <path
         inkscape:connector-curvature="0"
         style="opacity:0.49020003;fill:url(#radialGradient4031)"
         id="path4015"
         d="m 24.812,34.656 a 9.5,9.5312 0 1 1 -19,0 9.5,9.5312 0 1 1 19,0 z"
         transform="matrix(1.3882,0,0,0.49836,-4.7562,25.479)" />
      <g
         id="g4017"
         transform="matrix(0.96593,0.25882,-0.25882,0.96593,-9.9455524,13.131505)"
         style="fill:#a7a4d7;fill-opacity:1">
        <path
           inkscape:connector-curvature="0"
           style="fill:#a7a4d7;fill-opacity:1;stroke:#2e3436;stroke-width:1.00539994;stroke-linecap:square"
           id="path4019"
           d="m 31,0.5 c -0.562,0 -1.116,0.047 -1.656,0.125 l -0.219,3.0938 c -0.96,0.2157 -1.85,0.5835 -2.656,1.0937 L 24.125,2.7812 C 23,3.5 22.5,4 21.781,5.125 l 2.031,2.3438 c -0.51,0.8067 -0.878,1.6966 -1.093,2.6562 l -3.094,0.219 C 19.547,10.884 19.5,11.438 19.5,12 c 0,0.562 0.047,1.116 0.125,1.656 l 3.094,0.219 c 0.215,0.96 0.583,1.85 1.093,2.656 l -2.031,2.344 C 22.5,20 23,20.5 24.125,21.219 l 2.344,-2.031 c 0.806,0.51 1.696,0.878 2.656,1.093 l 0.219,3.094 c 0.54,0.078 1.094,0.125 1.656,0.125 0.562,0 1.116,-0.047 1.656,-0.125 l 0.219,-3.094 c 0.96,-0.215 1.85,-0.583 2.656,-1.093 l 2.344,2.031 C 39,20.5 39.5,20 40.219,18.875 l -2.031,-2.344 c 0.51,-0.806 0.878,-1.696 1.093,-2.656 l 3.094,-0.219 C 42.453,13.116 42.5,12.562 42.5,12 c 0,-0.562 -0.047,-1.116 -0.125,-1.656 L 39.281,10.125 C 39.066,9.1654 38.698,8.2755 38.188,7.4688 L 40.219,5.125 C 39.569,4.0173 39,3.5 37.875,2.7812 L 35.531,4.8125 C 34.725,4.3023 33.835,3.9345 32.875,3.7188 L 32.656,0.625 C 32.116,0.547 31.562,0.5 31,0.5 z"
           sodipodi:nodetypes="sccccccccsccccccccsccccccccsccccccccs" />
      </g>
    </g>
  </g>
</svg>
